<svg width="37" height="37" viewBox="0 0 37 37" fill="none" xmlns="http://www.w3.org/2000/svg">
    <path d="M22.9196 9.88815C22.9196 8.90497 23.0458 7.9529 23.2667 7.03817C21.8403 6.48435 20.2939 6.16699 18.6717 6.16699C11.7666 6.16699 6.16797 11.6865 6.16797 18.5003C6.16797 25.3142 11.7666 30.8337 18.678 30.8337C24.5859 30.8337 29.5281 26.7889 30.8346 21.3565C26.2017 19.552 22.9196 15.1027 22.9196 9.89437V9.88815Z" stroke="white" stroke-width="2" stroke-linecap="round" stroke-linejoin="round"/>
    <path d="M13.4883 14.6455C14.1269 14.6455 14.6445 14.1278 14.6445 13.4893C14.6445 12.8507 14.1269 12.333 13.4883 12.333C12.8497 12.333 12.332 12.8507 12.332 13.4893C12.332 14.1278 12.8497 14.6455 13.4883 14.6455Z" fill="white"/>
    <path d="M13.4883 22.3545C14.1269 22.3545 14.6445 21.8368 14.6445 21.1982C14.6445 20.5597 14.1269 20.042 13.4883 20.042C12.8497 20.042 12.332 20.5597 12.332 21.1982C12.332 21.8368 12.8497 22.3545 13.4883 22.3545Z" fill="white"/>
    <path d="M19.6562 19.2705C20.2948 19.2705 20.8125 18.7528 20.8125 18.1143C20.8125 17.4757 20.2948 16.958 19.6562 16.958C19.0177 16.958 18.5 17.4757 18.5 18.1143C18.5 18.7528 19.0177 19.2705 19.6562 19.2705Z" fill="white"/>
    <path d="M19.6563 25.4375C20.2948 25.4375 20.8125 24.9198 20.8125 24.2813C20.8125 23.6427 20.2948 23.125 19.6563 23.125C19.0177 23.125 18.5 23.6427 18.5 24.2813C18.5 24.9198 19.0177 25.4375 19.6563 25.4375Z" fill="white"/>
</svg>
